<svg xmlns="http://www.w3.org/2000/svg" viewBox="0 0 512 512">
  <rect width="512" height="512" rx="100" fill="#12131a"/>
  <g>
    <rect x="76" y="236" width="72" height="180" rx="10" fill="#eceef5"/>
    <rect x="152" y="236" width="72" height="180" rx="10" fill="#eceef5"/>
    <rect x="228" y="236" width="72" height="180" rx="10" fill="#eceef5"/>
    <rect x="304" y="236" width="72" height="180" rx="10" fill="#eceef5"/>
    <rect x="380" y="236" width="56" height="180" rx="10" fill="#eceef5"/>
    <rect x="128" y="236" width="48" height="110" rx="8" fill="#23252e"/>
    <rect x="204" y="236" width="48" height="110" rx="8" fill="#23252e"/>
    <rect x="332" y="236" width="48" height="110" rx="8" fill="#23252e"/>
  </g>
  <g fill="#5b8cff">
    <rect x="206" y="52" width="136" height="20" rx="10"/>
    <rect x="206" y="60" width="16" height="92"/>
    <rect x="326" y="52" width="16" height="78"/>
    <circle cx="192" cy="156" r="32"/>
    <circle cx="312" cy="134" r="32"/>
  </g>
</svg>